<svg width="155" height="213" viewBox="0 0 155 213" fill="none" xmlns="http://www.w3.org/2000/svg">
<line y1="-0.5" x2="76" y2="-0.5" transform="matrix(1 0 0 -1 0 119)" stroke="#E9E9EB"/>
<line y1="-0.5" x2="85.0004" y2="-0.5" transform="matrix(0.00317865 0.999995 0.999992 -0.0039761 75.7298 119)" stroke="#E9E9EB"/>
<line y1="-0.5" x2="62" y2="-0.5" transform="matrix(1 0 0 -1 0 43)" stroke="#E9E9EB"/>
<line y1="-0.5" x2="76" y2="-0.5" transform="matrix(0.0029002 0.999996 0.999991 -0.00435783 61.7796 43)" stroke="#E9E9EB"/>
<line y1="-0.5" x2="62" y2="-0.5" transform="matrix(1 0 0 -1 63 94)" stroke="#E9E9EB"/>
<line y1="-0.5" x2="119" y2="-0.5" transform="matrix(0.00185223 0.999998 0.999977 -0.00682338 124.78 94)" stroke="#E9E9EB"/>
<line y1="-0.5" x2="62" y2="-0.5" transform="matrix(1 0 0 -1 93 38)" stroke="#E9E9EB"/>
<line y1="-0.5" x2="138" y2="-0.5" transform="matrix(0.00159721 0.999999 0.999969 -0.00791276 154.78 38)" stroke="#E9E9EB"/>
<line y1="-0.5" x2="93" y2="-0.5" transform="matrix(1 0 0 -1 0 0)" stroke="#E9E9EB"/>
<line y1="-0.5" x2="94.0006" y2="-0.5" transform="matrix(0.00351724 0.999994 0.999994 -0.00359333 92.6694 0)" stroke="#E9E9EB"/>
</svg>
